<svg class="icon" style="width: 1em;height: 1em;vertical-align: middle;fill: currentColor;overflow: hidden;" viewBox="0 0 1024 1024" version="1.1" xmlns="http://www.w3.org/2000/svg" p-id="6342"><path d="M372.224 240.64c-142.336 0-282.112 47.616-282.112 105.472v47.616c0 57.856 127.488 111.104 282.112 111.104 154.112 0 282.112-47.616 282.112-111.104v-47.616c0-57.856-122.368-105.472-282.112-105.472z m81.92 150.016l-57.856-33.792v74.752h-50.176l-1.024-71.68-50.688 31.744-15.36-46.592 92.16-54.272L465.92 343.04l-11.776 47.616z m189.44 109.056c-31.744 47.616-143.36 84.48-271.36 84.48-127.488 0-239.104-36.864-271.36-84.48-5.12-10.752-10.752-5.12-10.752 0v95.232c0 68.608 127.488 126.976 282.112 126.976 154.112 0 282.112-57.856 282.112-126.976V499.712c0-5.632 0-10.752-10.752 0z m0 200.704c-31.744 52.736-143.36 95.232-271.36 95.232-127.488 0-239.104-36.864-271.36-95.232-5.12-10.752-10.752-5.12-10.752 0v79.36c0 74.24 127.488 153.088 282.112 153.088 154.112 0 282.112-79.36 282.112-153.088v-79.36c0-5.632 0-10.752-10.752 0z m-5.12-612.864c-154.112 0-282.112 47.616-282.112 105.472v5.12H414.72c53.76 0 104.448 5.632 147.456 15.872l-7.168-19.968 81.92-43.52 84.48 41.984-10.752 38.4-51.2-27.136v48.128c23.552 15.36 37.376 33.28 37.376 52.224v47.616c127.488-10.752 223.232-52.736 223.232-105.472V193.024c0-57.856-127.488-105.472-281.6-105.472z m270.848 459.264c-26.624 47.616-111.616 79.36-212.992 89.6V732.16c0 15.872-5.12 31.744-15.872 47.616 133.12-10.752 239.104-84.48 239.104-153.088v-79.36c0.512-5.632-4.608-10.752-10.24-0.512z m0-200.704c-26.624 42.496-111.616 68.608-212.992 79.36V563.2c127.488-10.752 223.232-63.488 223.232-121.344V346.112c0.512-5.12-4.608-10.24-10.24 0z m-321.536-125.44c9.216 2.56 17.92 5.632 26.112 8.704l-0.512-23.552-25.6 14.848z" fill="#D97757" p-id="6343"></path></svg>